HIERARCHY
ROOT root
{
  OFFSET 0 93.2929 0
  CHANNELS 6 Xposition Yposition Zposition Zrotation Xrotation Yrotation
  JOINT torso_1
  {
    OFFSET 0 5.07867 -1.15138
    CHANNELS 6 Xposition Yposition Zposition Zrotation Xrotation Yrotation
    JOINT torso_2
    {
      OFFSET 0 5.61661 1.07143
      CHANNELS 6 Xposition Yposition Zposition Zrotation Xrotation Yrotation
      JOINT torso_3
      {
        OFFSET -1.02604e-17 5.98978 0.11501
        CHANNELS 6 Xposition Yposition Zposition Zrotation Xrotation Yrotation
        JOINT torso_4
        {
          OFFSET -1.10457e-17 6.50583 -0.443523
          CHANNELS 6 Xposition Yposition Zposition Zrotation Xrotation Yrotation
          JOINT torso_5
          {
            OFFSET -1.97295e-17 7.60548 -1.50593
            CHANNELS 6 Xposition Yposition Zposition Zrotation Xrotation Yrotation
            JOINT torso_6
            {
              OFFSET -2.53307e-17 9.49737 -0.914492
              CHANNELS 6 Xposition Yposition Zposition Zrotation Xrotation Yrotation
              JOINT torso_7
              {
                OFFSET -2.90401e-17 10.5513 1.57691
                CHANNELS 6 Xposition Yposition Zposition Zrotation Xrotation Yrotation
                JOINT neck_1
                {
                  OFFSET -1.29193e-17 4.78644 0.715339
                  CHANNELS 6 Xposition Yposition Zposition Zrotation Xrotation Yrotation
                  JOINT neck_2
                  {
                    OFFSET -1.8116e-17 4.82109 0.421791
                    CHANNELS 6 Xposition Yposition Zposition Zrotation Xrotation Yrotation
                    JOINT head
                    {
                      OFFSET -2.00958e-17 4.83041 0.765062
                      CHANNELS 6 Xposition Yposition Zposition Zrotation Xrotation Yrotation
                      End Site
                      {
                        OFFSET 0 0.1 0
                      }
                    }
                  }
                }
                JOINT l_shoulder
                {
                  OFFSET 1.23299 -7.60731 7.53374
                  CHANNELS 6 Xposition Yposition Zposition Zrotation Xrotation Yrotation
                  JOINT l_up_arm
                  {
                    OFFSET 12.9547 3.2495 -3.26872
                    CHANNELS 6 Xposition Yposition Zposition Zrotation Xrotation Yrotation
                    JOINT l_low_arm
                    {
                      OFFSET 29.2081 0.0598081 0.137039
                      CHANNELS 6 Xposition Yposition Zposition Zrotation Xrotation Yrotation
                      JOINT l_hand
                      {
                        OFFSET 24.234 0.0496219 0.113701
                        CHANNELS 6 Xposition Yposition Zposition Zrotation Xrotation Yrotation
                        End Site
                        {
                          OFFSET 0.1 0 0
                        }
                      }
                    }
                  }
                }
                JOINT r_shoulder
                {
                  OFFSET -1.23299 -7.60729 7.53365
                  CHANNELS 6 Xposition Yposition Zposition Zrotation Xrotation Yrotation
                  JOINT r_up_arm
                  {
                    OFFSET -12.9547 3.2495 -3.26872
                    CHANNELS 6 Xposition Yposition Zposition Zrotation Xrotation Yrotation
                    JOINT r_low_arm
                    {
                      OFFSET -29.2081 0.0598081 0.137039
                      CHANNELS 6 Xposition Yposition Zposition Zrotation Xrotation Yrotation
                      JOINT r_hand
                      {
                        OFFSET -24.234 0.0496218 0.113702
                        CHANNELS 6 Xposition Yposition Zposition Zrotation Xrotation Yrotation
                        End Site
                        {
                          OFFSET -0.1 0 0
                        }
                      }
                    }
                  }
                }
              }
            }
          }
        }
      }
    }
  }
  JOINT l_up_leg
  {
    OFFSET 9.23673 -4.20556 2.0327
    CHANNELS 6 Xposition Yposition Zposition Zrotation Xrotation Yrotation
    JOINT l_low_leg
    {
      OFFSET -0.852353 -38.7721 -0.655187
      CHANNELS 6 Xposition Yposition Zposition Zrotation Xrotation Yrotation
      JOINT l_foot
      {
        OFFSET -2.32622 -40.4017 -6.04875
        CHANNELS 6 Xposition Yposition Zposition Zrotation Xrotation Yrotation
        JOINT l_toes
        {
          OFFSET 0.779096 -9.8844 12.4959
          CHANNELS 6 Xposition Yposition Zposition Zrotation Xrotation Yrotation
          End Site
          {
            OFFSET 0 0 0.1
          }
        }
      }
    }
  }
  JOINT r_up_leg
  {
    OFFSET -9.23673 -4.20556 2.0327
    CHANNELS 6 Xposition Yposition Zposition Zrotation Xrotation Yrotation
    JOINT r_low_leg
    {
      OFFSET 0.852353 -38.7721 -0.655187
      CHANNELS 6 Xposition Yposition Zposition Zrotation Xrotation Yrotation
      JOINT r_foot
      {
        OFFSET 2.32622 -40.4017 -6.04875
        CHANNELS 6 Xposition Yposition Zposition Zrotation Xrotation Yrotation
        JOINT r_toes
        {
          OFFSET -0.779096 -9.8844 12.4959
          CHANNELS 6 Xposition Yposition Zposition Zrotation Xrotation Yrotation
          End Site
          {
            OFFSET 0 0 0.1
          }
        }
      }
    }
  }
}
MOTION
Frames: 4
Frame Time: 0.016667
1.09628 93.2277 -3.00319 -0.879912 -2.139 -1.28 0 5.07867 -1.15138 -1.90297 -1.35585 -0.678733 0 5.61661 1.07143 -1.51214 -0.654097 -1.10756 -1.02604e-17 5.98978 0.11501 -1.05257 -0.168168 -1.17957 -1.10457e-17 6.50583 -0.443523 -0.562501 0.640468 -1.32313 -1.97295e-17 7.60548 -1.50593 -0.231225 0.564051 -1.21356 -2.53307e-17 9.49737 -0.914492 -0.0311806 0.366133 -1.38808 -2.90401e-17 10.5513 1.57691 0.032804 0.11788 -0.070142 -1.29193e-17 4.78644 0.715339 0.902412 3.54339 4.43858 -1.8116e-17 4.82109 0.421791 0.16133 0.206503 2.22397 -2.00958e-17 4.83041 0.765062 0.995948 2.45007 -2.29267 1.23299 -7.60731 7.53374 -0.953766 5.44088 -2.01945 12.9547 3.2495 -3.26872 -81.0049 12.2004 4.53291 29.2081 0.0598081 0.137039 2.21842 -0.197229 -10.7509 24.234 0.0496219 0.113701 -3.68498 -26.6256 -5.04033 -1.23299 -7.60729 7.53365 -9.6165 -5.92444 -3.1559 -12.9547 3.2495 -3.26872 75.0444 -32.4994 21.9709 -29.2081 0.0598081 0.137039 -9.33851 -19.3079 129.299 -24.234 0.0496218 0.113702 -6.07182 4.78199 2.53923 9.23673 -4.20556 2.0327 1.52235 2.67065 -13.097 -0.852353 -38.7721 -0.655187 0.120788 -0.450585 0.00834013 -2.32622 -40.4017 -6.04875 3.23628 0.277443 14.7595 0.779096 -9.8844 12.4959 -2.1827e-16 -8.077e-16 2.49849e-17 -9.23673 -4.20556 2.0327 -1.39194 1.89597 20.9005 0.852353 -38.7721 -0.655187 0.959548 3.58353 0.0325492 2.32622 -40.4017 -6.04875 0.173645 -0.935143 -15.2889 -0.779096 -9.8844 12.4959 -8.5994e-16 -5.50845e-16 -1.27347e-14 
1.10403 93.2286 -2.99907 -0.89159 -2.13556 -1.30419 0 5.07867 -1.15138 -1.89677 -1.34791 -0.678453 0 5.61661 1.07143 -1.50763 -0.649266 -1.10672 -1.02604e-17 5.98978 0.11501 -1.04977 -0.167278 -1.1789 -1.10457e-17 6.50583 -0.443523 -0.561577 0.634406 -1.32272 -1.97295e-17 7.60548 -1.50593 -0.231863 0.555305 -1.21327 -2.53307e-17 9.49737 -0.914492 -0.0333704 0.354959 -1.38707 -2.90401e-17 10.5513 1.57691 0.0327644 0.118154 -0.0701133 -1.29193e-17 4.78644 0.715339 0.900418 3.52564 4.4581 -1.8116e-17 4.82109 0.421791 0.137002 0.213408 2.23203 -2.00958e-17 4.83041 0.765062 0.969291 2.4667 -2.29736 1.23299 -7.60731 7.53374 -0.94825 5.44861 -2.02189 12.9547 3.2495 -3.26872 -81.0258 12.215 4.55359 29.2081 0.0598081 0.137039 2.22126 -0.197754 -10.7648 24.234 0.0496219 0.113701 -3.67423 -26.6229 -5.0374 -1.23299 -7.60729 7.53365 -9.60408 -5.91475 -3.14939 -12.9547 3.2495 -3.26872 75.0149 -32.4495 21.9595 -29.2081 0.0598081 0.137039 -9.33854 -19.3078 129.299 -24.234 0.0496218 0.113702 -6.10286 4.85237 2.56238 9.23673 -4.20556 2.0327 1.53007 2.67043 -13.0839 -0.852353 -38.7721 -0.655187 0.119874 -0.447175 0.00827346 -2.32622 -40.4017 -6.04875 3.23654 0.269712 14.7603 0.779096 -9.8844 12.4959 6.4824e-16 -7.66058e-16 -1.66566e-17 -9.23673 -4.20556 2.0327 -1.38432 1.88775 20.9255 0.852353 -38.7721 -0.655187 0.961572 3.59108 0.0325544 2.32622 -40.4017 -6.04875 0.173915 -0.924748 -15.2886 -0.779096 -9.8844 12.4959 -1.26043e-15 -5.3833e-16 -1.27159e-14 
1.11103 93.2308 -2.99469 -0.90201 -2.1464 -1.3277 0 5.07867 -1.15138 -1.88903 -1.3386 -0.677399 0 5.61661 1.07143 -1.50216 -0.643155 -1.10449 -1.02604e-17 5.98978 0.11501 -1.04677 -0.165463 -1.17683 -1.10457e-17 6.50583 -0.443523 -0.561263 0.629246 -1.3208 -1.97295e-17 7.60548 -1.50593 -0.233517 0.546381 -1.21147 -2.53307e-17 9.49737 -0.914492 -0.0367574 0.343254 -1.38449 -2.90401e-17 10.5513 1.57691 0.0327213 0.118411 -0.0701043 -1.29193e-17 4.78644 0.715339 0.896964 3.5019 4.48289 -1.8116e-17 4.82109 0.421791 0.109342 0.224617 2.24226 -2.00958e-17 4.83041 0.765062 0.934909 2.50077 -2.30349 1.23299 -7.60731 7.53374 -0.946044 5.46261 -2.03657 12.9547 3.2495 -3.26872 -81.0365 12.2278 4.56787 29.2081 0.0598081 0.137039 2.22146 -0.197791 -10.7658 24.234 0.0496219 0.113701 -3.68019 -26.6258 -5.03753 -1.23299 -7.60729 7.53365 -9.58223 -5.90426 -3.12941 -12.9547 3.2495 -3.26872 74.949 -32.3977 21.9343 -29.2081 0.0598081 0.137039 -9.33848 -19.3079 129.299 -24.234 0.0496218 0.113702 -6.13562 4.93236 2.57382 9.23673 -4.20556 2.0327 1.53905 2.68338 -13.0803 -0.852353 -38.7721 -0.655187 0.118618 -0.442493 0.00818197 -2.32622 -40.4017 -6.04875 3.22546 0.267359 14.7613 0.779096 -9.8844 12.4959 -3.45684e-16 -8.07471e-16 2.47568e-17 -9.23673 -4.20556 2.0327 -1.37863 1.89756 20.9389 0.852353 -38.7721 -0.655187 0.961722 3.59164 0.0325548 2.32622 -40.4017 -6.04875 0.179645 -0.907794 -15.2884 -0.779096 -9.8844 12.4959 -5.97814e-16 -5.59036e-16 -1.2747e-14 
1.11826 93.2335 -2.98969 -0.895927 -2.13952 -1.34547 0 5.07867 -1.15138 -1.89113 -1.33033 -0.675705 0 5.61661 1.07143 -1.50531 -0.637912 -1.10316 -1.02604e-17 5.98978 0.11501 -1.05047 -0.16462 -1.17577 -1.10457e-17 6.50583 -0.443523 -0.565695 0.622985 -1.32007 -1.97295e-17 7.60548 -1.50593 -0.237563 0.536325 -1.21 -2.53307e-17 9.49737 -0.914492 -0.040395 0.330655 -1.38199 -2.90401e-17 10.5513 1.57691 0.0326575 0.118619 -0.0700911 -1.29193e-17 4.78644 0.715339 0.894069 3.47 4.4994 -1.8116e-17 4.82109 0.421791 0.085128 0.225088 2.24884 -2.00958e-17 4.83041 0.765062 0.902624 2.5189 -2.30001 1.23299 -7.60731 7.53374 -0.937191 5.47559 -2.04515 12.9547 3.2495 -3.26872 -81.0386 12.2534 4.58252 29.2081 0.0598081 0.137039 2.22189 -0.197871 -10.7679 24.234 0.0496219 0.113701 -3.70031 -26.6523 -5.05413 -1.23299 -7.60729 7.53365 -9.56405 -5.89353 -3.11428 -12.9547 3.2495 -3.26872 74.903 -32.3706 21.8915 -29.2081 0.0598081 0.137039 -9.3379 -19.3086 129.304 -24.234 0.0496218 0.113702 -6.16241 4.98367 2.59 9.23673 -4.20556 2.0327 1.52973 2.68244 -13.0742 -0.852353 -38.7721 -0.655187 0.119925 -0.447367 0.00827721 -2.32622 -40.4017 -6.04875 3.21374 0.278254 14.7613 0.779096 -9.8844 12.4959 6.43861e-16 -7.6624e-16 -1.64742e-17 -9.23673 -4.20556 2.0327 -1.39007 1.88815 20.9589 0.852353 -38.7721 -0.655187 0.963446 3.59808 0.032559 2.32622 -40.4017 -6.04875 0.184225 -0.904142 -15.2891 -0.779096 -9.8844 12.4959 -9.26932e-16 -5.48751e-16 -1.27264e-14 
